<svg xmlns="http://www.w3.org/2000/svg" width="18" height="18" viewBox="0 0 18 18" fill="none">
  <path d="M12 6C12.414 6 12.75 6.3345 12.75 6.74625V14.2537C12.75 14.6663 12.414 15 12 15C11.586 15 11.25 14.6655 11.25 14.2537V6.74625C11.25 6.33375 11.586 6 12 6ZM9 8.25C9.19891 8.25 9.38968 8.32902 9.53033 8.46967C9.67098 8.61032 9.75 8.80109 9.75 9V14.25C9.75 14.4489 9.67098 14.6397 9.53033 14.7803C9.38968 14.921 9.19891 15 9 15C8.80109 15 8.61032 14.921 8.46967 14.7803C8.32902 14.6397 8.25 14.4489 8.25 14.25V9C8.25 8.80109 8.32902 8.61032 8.46967 8.46967C8.61032 8.32902 8.80109 8.25 9 8.25ZM6 10.5C6.414 10.5 6.75 10.8338 6.75 11.2455V14.2545C6.75 14.6663 6.414 15 6 15C5.586 15 5.25 14.6663 5.25 14.2545V11.2455C5.25029 11.1473 5.26993 11.0501 5.30778 10.9595C5.34563 10.8689 5.40096 10.7866 5.4706 10.7174C5.54025 10.6482 5.62284 10.5934 5.71368 10.5561C5.80451 10.5188 5.9018 10.4997 6 10.5ZM3 12.75C3.414 12.75 3.75 13.08 3.75 13.488V14.262C3.74922 14.3597 3.72919 14.4563 3.69108 14.5463C3.65296 14.6362 3.5975 14.7178 3.52785 14.7863C3.45821 14.8549 3.37575 14.909 3.28518 14.9457C3.19461 14.9823 3.0977 15.0008 3 15C2.586 15 2.25 14.67 2.25 14.262V13.488C2.25078 13.3903 2.27081 13.2937 2.30892 13.2037C2.34704 13.1138 2.4025 13.0322 2.47215 12.9637C2.54179 12.8951 2.62425 12.841 2.71482 12.8043C2.80539 12.7677 2.9023 12.7492 3 12.75Z" fill="black"/>
</svg>