<svg width="19" height="18" viewBox="0 0 19 18" fill="none" xmlns="http://www.w3.org/2000/svg">
<path d="M10.475 12.9559C10.325 12.8059 10.253 12.6246 10.259 12.4121C10.265 12.1996 10.3433 12.0184 10.4938 11.8684L12.6125 9.74961H4.25C4.0375 9.74961 3.85925 9.67761 3.71525 9.53361C3.57125 9.38961 3.4995 9.21161 3.5 8.99961C3.5 8.78711 3.572 8.60886 3.716 8.46486C3.86 8.32086 4.038 8.24911 4.25 8.24961H12.6125L10.475 6.11211C10.325 5.96211 10.25 5.78386 10.25 5.57736C10.25 5.37086 10.325 5.19286 10.475 5.04336C10.625 4.89336 10.8033 4.81836 11.0098 4.81836C11.2163 4.81836 11.3943 4.89336 11.5438 5.04336L14.975 8.47461C15.05 8.54961 15.1033 8.63086 15.1348 8.71836C15.1663 8.80586 15.1818 8.89961 15.1813 8.99961C15.1813 9.09961 15.1655 9.19336 15.134 9.28086C15.1025 9.36836 15.0495 9.44961 14.975 9.52461L11.525 12.9746C11.3875 13.1121 11.2158 13.1809 11.0098 13.1809C10.8038 13.1809 10.6255 13.1059 10.475 12.9559Z" fill="#6B6B6B"/>
</svg>
