<svg xmlns="http://www.w3.org/2000/svg" width="16" height="12" viewBox="0 0 16 12" fill="none">
<path fill-rule="evenodd" clip-rule="evenodd" d="M0.960505 1.0695C1.04566 0.863908 1.18987 0.688189 1.37491 0.564567C1.55994 0.440945 1.77748 0.374975 2.00001 0.375H9.50001C10.9918 0.375 12.4226 0.967632 13.4775 2.02252C14.5324 3.07742 15.125 4.50816 15.125 6C15.125 7.49184 14.5324 8.92258 13.4775 9.97748C12.4226 11.0324 10.9918 11.625 9.50001 11.625H2.75001C2.45164 11.625 2.16549 11.5065 1.95451 11.2955C1.74353 11.0845 1.62501 10.7984 1.62501 10.5C1.62501 10.2016 1.74353 9.91548 1.95451 9.70451C2.16549 9.49353 2.45164 9.375 2.75001 9.375H9.50001C10.3951 9.375 11.2536 9.01942 11.8865 8.38649C12.5194 7.75355 12.875 6.89511 12.875 6C12.875 5.10489 12.5194 4.24645 11.8865 3.61351C11.2536 2.98058 10.3951 2.625 9.50001 2.625H4.71575L5.42075 3.33C5.62559 3.54227 5.73885 3.82651 5.73615 4.12148C5.73344 4.41645 5.615 4.69856 5.40631 4.90704C5.19763 5.11553 4.91541 5.23371 4.62043 5.23614C4.32546 5.23856 4.04134 5.12503 3.82926 4.92L1.20426 2.295C1.04704 2.1377 0.939983 1.93732 0.896599 1.7192C0.853214 1.50108 0.875453 1.27499 0.960505 1.0695Z" fill="#8DB0F9"/>
</svg>