<svg xmlns="http://www.w3.org/2000/svg" width="18" height="18" viewBox="0 0 18 18" fill="none">
  <path d="M13.5809 5.0625H2.73164C1.84432 5.0625 1.125 5.78182 1.125 6.66914V11.3309C1.125 12.2182 1.84432 12.9375 2.73164 12.9375H13.5809C14.4682 12.9375 15.1875 12.2182 15.1875 11.3309V6.66914C15.1875 5.78182 14.4682 5.0625 13.5809 5.0625Z" stroke="black" stroke-width="1.125" stroke-miterlimit="10" stroke-linecap="square"/>
  <path d="M8.29703 6.99365H3.15332C3.07566 6.99365 3.0127 7.05661 3.0127 7.13428V10.8654C3.0127 10.9431 3.07566 11.006 3.15332 11.006H8.29703C8.3747 11.006 8.43766 10.9431 8.43766 10.8654V7.13428C8.43766 7.05661 8.3747 6.99365 8.29703 6.99365Z" fill="black" stroke="black" stroke-width="1.125" stroke-miterlimit="10" stroke-linecap="square"/>
  <path d="M16.875 7.6875V10.3123" stroke="black" stroke-width="1.125" stroke-miterlimit="10" stroke-linecap="round"/>
</svg>