<svg xmlns="http://www.w3.org/2000/svg" width="24" height="25" viewBox="0 0 24 25" fill="none">
  <path d="M13.8224 19.7226L13.8223 19.7225C11.8191 18.7827 10.0468 17.5411 8.50322 15.9969L8.50311 15.9968C6.95892 14.4532 5.71727 12.6809 4.7775 10.6777L4.77743 10.6776C3.84102 8.68364 3.375 6.6422 3.375 4.55C3.375 4.34276 3.44009 4.19024 3.56516 4.06516C3.69024 3.94009 3.84276 3.875 4.05 3.875H8.1C8.24534 3.875 8.37009 3.91914 8.48754 4.01523C8.59854 4.10605 8.6588 4.21325 8.67877 4.35303L8.67988 4.36078L8.6813 4.36847L9.32982 7.86046C9.3569 8.05508 9.35134 8.21923 9.32154 8.35742C9.29603 8.47355 9.23814 8.58153 9.13483 8.68483L9.13482 8.68482L9.13212 8.68758L6.73212 11.1376L6.53197 11.3419L6.67608 11.589C7.39339 12.8186 8.28862 13.969 9.35984 15.0402C10.4311 16.1114 11.6133 17.0385 12.9058 17.8208L13.1573 17.973L13.3652 17.7652L15.7152 15.4152C15.8145 15.3158 15.9539 15.231 16.1489 15.1702C16.3374 15.1119 16.5155 15.0969 16.6869 15.1198L20.1214 15.8167C20.122 15.8168 20.1226 15.8169 20.1232 15.8171C20.2785 15.8507 20.3961 15.9215 20.4902 16.031C20.5813 16.1375 20.625 16.2551 20.625 16.4V20.45C20.625 20.6572 20.5599 20.8098 20.4348 20.9348C20.3098 21.0599 20.1572 21.125 19.95 21.125C17.8578 21.125 15.8164 20.659 13.8224 19.7226Z" fill="black" stroke="black" stroke-width="0.75"/>
</svg>