<svg width="18" height="19" viewBox="0 0 18 19" fill="none" xmlns="http://www.w3.org/2000/svg">
<path d="M10.4067 14.8321L10.4065 14.832C8.91388 14.1317 7.59359 13.2067 6.44372 12.0564L6.44361 12.0563C5.29325 10.9064 4.36827 9.58612 3.668 8.09348L3.66793 8.09334C2.97118 6.60972 2.625 5.0922 2.625 3.5375C2.625 3.40526 2.66509 3.31524 2.74016 3.24016C2.81524 3.16509 2.90526 3.125 3.0375 3.125H6.075C6.16201 3.125 6.23467 3.15039 6.30629 3.20898C6.37145 3.2623 6.40463 3.32158 6.41627 3.40303L6.41738 3.41078L6.4188 3.41847L6.90479 6.03534C6.92353 6.17143 6.91904 6.28249 6.89958 6.37297C6.8846 6.44118 6.85069 6.50648 6.78484 6.57233L6.78482 6.57232L6.78211 6.57508L4.98212 8.41258L4.78197 8.6169L4.92608 8.86395C5.46839 9.79362 6.14487 10.6627 6.95359 11.4714C7.76236 12.2802 8.65493 12.9801 9.63082 13.5708L9.88231 13.723L10.0902 13.5152L11.8527 11.7527C11.9145 11.6908 12.005 11.6341 12.1395 11.5922C12.2676 11.5526 12.3865 11.5427 12.4997 11.5574L15.0732 12.0796C15.1701 12.1007 15.2399 12.1435 15.2965 12.2093C15.35 12.272 15.375 12.3384 15.375 12.425V15.4625C15.375 15.5947 15.3349 15.6848 15.2598 15.7598C15.1848 15.8349 15.0947 15.875 14.9625 15.875C13.4078 15.875 11.8903 15.5288 10.4067 14.8321Z" fill="#A6A6A6" stroke="#A6A6A6" stroke-width="0.75"/>
</svg>
