<svg xmlns="http://www.w3.org/2000/svg" width="25" height="25" viewBox="0 0 25 25" fill="none">
  <path d="M3.33325 11.5H4.37825M4.37825 11.5H20.2883M4.37825 11.5C4.39025 11.448 4.40325 11.398 4.41825 11.347C4.4718 11.1875 4.53526 11.0316 4.60825 10.88L6.15525 7.4C6.46025 6.713 6.61325 6.368 6.85525 6.116C7.06925 5.893 7.33125 5.723 7.62125 5.618C7.95025 5.5 8.32625 5.5 9.07925 5.5H15.5873C16.3393 5.5 16.7173 5.5 17.0453 5.618C17.3353 5.723 17.5973 5.893 17.8103 6.116C18.0523 6.368 18.2053 6.712 18.5103 7.399L20.0633 10.892C20.1623 11.115 20.2133 11.229 20.2483 11.347C20.2633 11.397 20.2763 11.448 20.2883 11.5M4.37825 11.5C4.36572 11.5575 4.35571 11.6156 4.34825 11.674C4.33325 11.8 4.33325 11.926 4.33325 12.18V17.5M20.2883 11.5H21.3333M20.2883 11.5C20.3013 11.558 20.3103 11.616 20.3173 11.674C20.3333 11.798 20.3333 11.924 20.3333 12.174V17.5M4.33325 17.5H8.33325M4.33325 17.5V18.5C4.33325 19.0304 4.54397 19.5391 4.91904 19.9142C5.29411 20.2893 5.80282 20.5 6.33325 20.5C6.86368 20.5 7.37239 20.2893 7.74747 19.9142C8.12254 19.5391 8.33325 19.0304 8.33325 18.5V17.5M20.3333 17.5H16.3333M20.3333 17.5V18.5C20.3333 19.0304 20.1225 19.5391 19.7475 19.9142C19.3724 20.2893 18.8637 20.5 18.3333 20.5C17.8028 20.5 17.2941 20.2893 16.919 19.9142C16.544 19.5391 16.3333 19.0304 16.3333 18.5V17.5M16.3333 17.5H8.33325" stroke="black" stroke-width="1.5" stroke-linecap="round" stroke-linejoin="round"/>
</svg>