<svg width="19" height="19" viewBox="0 0 19 19" fill="none" xmlns="http://www.w3.org/2000/svg">
<g id="Icon/car">
<g id="Vector">
<path d="M2.75 9.16211H3.53375H2.75ZM3.53375 9.16211H15.4662H3.53375ZM3.53375 9.16211C3.54275 9.12311 3.5525 9.08561 3.56375 9.04736C3.60391 8.92776 3.6515 8.81078 3.70625 8.69711L4.8665 6.08711C5.09525 5.57186 5.21 5.31311 5.3915 5.12411C5.552 4.95686 5.7485 4.82936 5.966 4.75061C6.21275 4.66211 6.49475 4.66211 7.0595 4.66211H11.9405C12.5045 4.66211 12.788 4.66211 13.034 4.75061C13.2515 4.82936 13.448 4.95686 13.6077 5.12411C13.7892 5.31311 13.904 5.57111 14.1327 6.08636L15.2975 8.70611C15.3717 8.87336 15.41 8.95886 15.4363 9.04736C15.4475 9.08486 15.4572 9.12311 15.4662 9.16211M3.53375 9.16211C3.52435 9.20526 3.51685 9.2488 3.51125 9.29261C3.5 9.38711 3.5 9.48161 3.5 9.67211V13.6621M15.4662 9.16211H16.25H15.4662ZM15.4662 9.16211C15.476 9.20561 15.4827 9.24911 15.488 9.29261C15.5 9.38561 15.5 9.48011 15.5 9.66761V13.6621M15.5 13.6621H12.5H15.5ZM15.5 13.6621V14.4121C15.5 14.8099 15.342 15.1915 15.0607 15.4728C14.7794 15.7541 14.3978 15.9121 14 15.9121C13.6022 15.9121 13.2206 15.7541 12.9393 15.4728C12.658 15.1915 12.5 14.8099 12.5 14.4121V13.6621M12.5 13.6621H6.5H12.5ZM6.5 13.6621H3.5H6.5ZM6.5 13.6621V14.4121C6.5 14.8099 6.34196 15.1915 6.06066 15.4728C5.77936 15.7541 5.39782 15.9121 5 15.9121C4.60218 15.9121 4.22064 15.7541 3.93934 15.4728C3.65804 15.1915 3.5 14.8099 3.5 14.4121V13.6621" fill="white"/>
<path d="M2.75 9.16211H3.53375M3.53375 9.16211H15.4662M3.53375 9.16211C3.54275 9.12311 3.5525 9.08561 3.56375 9.04736C3.60391 8.92776 3.6515 8.81078 3.70625 8.69711L4.8665 6.08711C5.09525 5.57186 5.21 5.31311 5.3915 5.12411C5.552 4.95686 5.7485 4.82936 5.966 4.75061C6.21275 4.66211 6.49475 4.66211 7.0595 4.66211H11.9405C12.5045 4.66211 12.788 4.66211 13.034 4.75061C13.2515 4.82936 13.448 4.95686 13.6077 5.12411C13.7892 5.31311 13.904 5.57111 14.1328 6.08636L15.2975 8.70611C15.3717 8.87336 15.41 8.95886 15.4363 9.04736C15.4475 9.08486 15.4572 9.12311 15.4662 9.16211M3.53375 9.16211C3.52435 9.20526 3.51685 9.2488 3.51125 9.29261C3.5 9.38711 3.5 9.48161 3.5 9.67211V13.6621M15.4662 9.16211H16.25M15.4662 9.16211C15.476 9.20561 15.4827 9.24911 15.488 9.29261C15.5 9.38561 15.5 9.48011 15.5 9.66761V13.6621M3.5 13.6621H6.5M3.5 13.6621V14.4121C3.5 14.8099 3.65804 15.1915 3.93934 15.4728C4.22064 15.7541 4.60218 15.9121 5 15.9121C5.39782 15.9121 5.77936 15.7541 6.06066 15.4728C6.34196 15.1915 6.5 14.8099 6.5 14.4121V13.6621M15.5 13.6621H12.5M15.5 13.6621V14.4121C15.5 14.8099 15.342 15.1915 15.0607 15.4728C14.7794 15.7541 14.3978 15.9121 14 15.9121C13.6022 15.9121 13.2206 15.7541 12.9393 15.4728C12.658 15.1915 12.5 14.8099 12.5 14.4121V13.6621M12.5 13.6621H6.5" stroke="#8DB0F9" stroke-width="1.5" stroke-linecap="round" stroke-linejoin="round"/>
</g>
</g>
</svg>
