<svg xmlns="http://www.w3.org/2000/svg" width="18" height="18" viewBox="0 0 18 18" fill="none">
  <path d="M2.25 8.25H3.03375M3.03375 8.25H14.9662M3.03375 8.25C3.04275 8.211 3.0525 8.1735 3.06375 8.13525C3.10391 8.01565 3.1515 7.89867 3.20625 7.785L4.3665 5.175C4.59525 4.65975 4.71 4.401 4.8915 4.212C5.052 4.04475 5.2485 3.91725 5.466 3.8385C5.71275 3.75 5.99475 3.75 6.5595 3.75H11.4405C12.0045 3.75 12.288 3.75 12.534 3.8385C12.7515 3.91725 12.948 4.04475 13.1077 4.212C13.2892 4.401 13.404 4.659 13.6328 5.17425L14.7975 7.794C14.8717 7.96125 14.91 8.04675 14.9363 8.13525C14.9475 8.17275 14.9572 8.211 14.9662 8.25M3.03375 8.25C3.02435 8.29315 3.01685 8.33669 3.01125 8.3805C3 8.475 3 8.5695 3 8.76V12.75M14.9662 8.25H15.75M14.9662 8.25C14.976 8.2935 14.9827 8.337 14.988 8.3805C15 8.4735 15 8.568 15 8.7555V12.75M3 12.75H6M3 12.75V13.5C3 13.8978 3.15804 14.2794 3.43934 14.5607C3.72064 14.842 4.10218 15 4.5 15C4.89782 15 5.27936 14.842 5.56066 14.5607C5.84196 14.2794 6 13.8978 6 13.5V12.75M15 12.75H12M15 12.75V13.5C15 13.8978 14.842 14.2794 14.5607 14.5607C14.2794 14.842 13.8978 15 13.5 15C13.1022 15 12.7206 14.842 12.4393 14.5607C12.158 14.2794 12 13.8978 12 13.5V12.75M12 12.75H6" stroke="black" stroke-width="1.5" stroke-linecap="round" stroke-linejoin="round"/>
</svg>