<svg width="24" height="24" viewBox="0 0 24 24" fill="none" xmlns="http://www.w3.org/2000/svg">
<g id="Icon/check">
<path id="Vector" d="M10 13.5998L15.9 7.6998C16.0834 7.51647 16.3167 7.4248 16.6 7.4248C16.8834 7.4248 17.1167 7.51647 17.3 7.6998C17.4834 7.88314 17.575 8.11647 17.575 8.3998C17.575 8.68314 17.4834 8.91647 17.3 9.0998L10.7 15.6998C10.5 15.8998 10.2667 15.9998 10 15.9998C9.73338 15.9998 9.50005 15.8998 9.30005 15.6998L6.70005 13.0998C6.51672 12.9165 6.42505 12.6831 6.42505 12.3998C6.42505 12.1165 6.51672 11.8831 6.70005 11.6998C6.88338 11.5165 7.11672 11.4248 7.40005 11.4248C7.68338 11.4248 7.91672 11.5165 8.10005 11.6998L10 13.5998Z" fill="white"/>
</g>
</svg>
