<svg xmlns="http://www.w3.org/2000/svg" width="24" height="24" viewBox="0 0 24 24" fill="none">
  <path d="M9.99999 13.5998L15.9 7.6998C16.0833 7.51647 16.3167 7.4248 16.6 7.4248C16.8833 7.4248 17.1167 7.51647 17.3 7.6998C17.4833 7.88314 17.575 8.11647 17.575 8.3998C17.575 8.68314 17.4833 8.91647 17.3 9.0998L10.7 15.6998C10.5 15.8998 10.2667 15.9998 9.99999 15.9998C9.73332 15.9998 9.49999 15.8998 9.29999 15.6998L6.69999 13.0998C6.51665 12.9165 6.42499 12.6831 6.42499 12.3998C6.42499 12.1165 6.51665 11.8831 6.69999 11.6998C6.88332 11.5165 7.11665 11.4248 7.39999 11.4248C7.68332 11.4248 7.91665 11.5165 8.09999 11.6998L9.99999 13.5998Z" fill="white"/>
</svg>