<svg width="12" height="13" viewBox="0 0 12 13" fill="none" xmlns="http://www.w3.org/2000/svg">
<path d="M9.53906 3.5H4.33594C3.59812 3.5 3 4.09812 3 4.83594V10.0391C3 10.7769 3.59812 11.375 4.33594 11.375H9.53906C10.2769 11.375 10.875 10.7769 10.875 10.0391V4.83594C10.875 4.09812 10.2769 3.5 9.53906 3.5Z" fill="white" stroke="#8DB0F9" stroke-width="1.125" stroke-linejoin="round"/>
<path d="M8.98828 3.5L9 2.9375C8.99901 2.58971 8.86041 2.25644 8.61448 2.01052C8.36856 1.76459 8.03529 1.62599 7.6875 1.625H2.625C2.22754 1.62617 1.84669 1.78459 1.56564 2.06564C1.28459 2.34669 1.12617 2.72754 1.125 3.125V8.1875C1.12599 8.53529 1.26459 8.86856 1.51052 9.11448C1.75644 9.36041 2.08971 9.49901 2.4375 9.5H3" stroke="#8DB0F9" stroke-width="1.125" stroke-linecap="round" stroke-linejoin="round"/>
</svg>
