<svg xmlns="http://www.w3.org/2000/svg" width="12" height="12" viewBox="0 0 12 12" fill="none">
  <path d="M4.2 8H8C8.14167 8 8.2605 8.048 8.3565 8.144C8.4525 8.24 8.50034 8.35866 8.5 8.5C8.5 8.64166 8.452 8.7605 8.356 8.8565C8.26 8.9525 8.14134 9.00033 8 9H3C2.85834 9 2.7395 8.952 2.6435 8.856C2.5475 8.76 2.49967 8.64133 2.5 8.5L2.5 3.5C2.5 3.35833 2.548 3.2395 2.644 3.1435C2.74 3.0475 2.85867 2.99966 3 3C3.14167 3 3.2605 3.048 3.3565 3.144C3.4525 3.24 3.50034 3.35866 3.5 3.5L3.5 7.3L7.95 2.85C8.04167 2.75833 8.15834 2.7125 8.3 2.7125C8.44167 2.7125 8.55833 2.75833 8.65 2.85C8.74167 2.94167 8.7875 3.05833 8.7875 3.2C8.7875 3.34166 8.74167 3.45833 8.65 3.55L4.2 8Z" fill="black"/>
</svg>