<svg width="12" height="13" viewBox="0 0 12 13" fill="none" xmlns="http://www.w3.org/2000/svg">
<path d="M10.47 6C10.3567 4.98606 9.90208 4.04077 9.18065 3.31935C8.45923 2.59792 7.51394 2.14326 6.5 2.03V1H5.5V2.03C4.48606 2.14326 3.54077 2.59792 2.81935 3.31935C2.09792 4.04077 1.64326 4.98606 1.53 6H0.5V7H1.53C1.64326 8.01394 2.09792 8.95923 2.81935 9.68065C3.54077 10.4021 4.48606 10.8567 5.5 10.97V12H6.5V10.97C7.51394 10.8567 8.45923 10.4021 9.18065 9.68065C9.90208 8.95923 10.3567 8.01394 10.47 7H11.5V6H10.47ZM6 10C4.065 10 2.5 8.435 2.5 6.5C2.5 4.565 4.065 3 6 3C7.935 3 9.5 4.565 9.5 6.5C9.5 8.435 7.935 10 6 10Z" fill="#8DB0F9"/>
</svg>
