<svg width="12" height="14" viewBox="0 0 12 14" fill="none" xmlns="http://www.w3.org/2000/svg">
<path d="M2.57146 7H6.85718M2.57146 8.71429H8.57146M2.57146 10.4286H5.14289M11.1429 11.2857V5.28571L6.85718 1H2.57146C2.11681 1 1.68077 1.18061 1.35928 1.5021C1.03779 1.82359 0.857178 2.25963 0.857178 2.71429V11.2857C0.857178 11.7404 1.03779 12.1764 1.35928 12.4979C1.68077 12.8194 2.11681 13 2.57146 13H9.42861C9.88326 13 10.3193 12.8194 10.6408 12.4979C10.9623 12.1764 11.1429 11.7404 11.1429 11.2857Z" stroke="#A6A6A6" stroke-width="0.857143" stroke-linecap="round" stroke-linejoin="round"/>
<path d="M6.85718 1V3.57143C6.85718 4.02609 7.03779 4.46212 7.35928 4.78361C7.68077 5.1051 8.11681 5.28571 8.57146 5.28571H11.1429" stroke="#A6A6A6" stroke-width="0.857143" stroke-linecap="round" stroke-linejoin="round"/>
</svg>
