<svg xmlns="http://www.w3.org/2000/svg" width="18" height="18" viewBox="0 0 18 18" fill="none">
<path d="M9.9751 12.9751L6.5251 9.5251C6.4501 9.4501 6.3971 9.36885 6.3661 9.28135C6.3346 9.19385 6.31885 9.1001 6.31885 9.0001C6.31885 8.9001 6.3346 8.80635 6.3661 8.71885C6.3971 8.63135 6.4501 8.5501 6.5251 8.4751L9.9751 5.0251C10.1126 4.8876 10.2876 4.81885 10.5001 4.81885C10.7126 4.81885 10.8876 4.8876 11.0251 5.0251C11.1626 5.1626 11.2313 5.3376 11.2313 5.5501C11.2313 5.7626 11.1626 5.9376 11.0251 6.0751L8.1001 9.0001L11.0251 11.9251C11.1626 12.0626 11.2313 12.2376 11.2313 12.4501C11.2313 12.6626 11.1626 12.8376 11.0251 12.9751C10.8876 13.1126 10.7126 13.1813 10.5001 13.1813C10.2876 13.1813 10.1126 13.1126 9.9751 12.9751Z" fill="black"/>
</svg>