<svg width="12" height="15" viewBox="0 0 12 15" fill="none" xmlns="http://www.w3.org/2000/svg">
<g id="Group">
<path id="Vector" d="M0.75 5.94225C0.75 9.58125 3.933 12.5903 5.34225 13.7438C5.54475 13.9088 5.646 13.9928 5.79675 14.0348C5.91375 14.0678 6.08625 14.0678 6.20325 14.0348C6.354 13.9928 6.45525 13.9095 6.65775 13.7438C8.067 12.5903 11.25 9.58125 11.25 5.94225C11.2493 5.25903 11.1131 4.58273 10.8492 3.95254C10.5853 3.32235 10.1989 2.7508 9.7125 2.271C8.72333 1.29528 7.38942 0.748785 6 0.750002C4.61058 0.748785 3.27667 1.29528 2.2875 2.271C1.80106 2.75077 1.41468 3.32232 1.15076 3.95251C0.886835 4.58271 0.750617 5.25902 0.75 5.94225Z" stroke="#A6A6A6" stroke-width="1.5" stroke-linecap="round" stroke-linejoin="round"/>
<path id="Vector_2" d="M4.5 5.25C4.5 5.64782 4.65804 6.02936 4.93934 6.31066C5.22064 6.59196 5.60218 6.75 6 6.75C6.39782 6.75 6.77936 6.59196 7.06066 6.31066C7.34196 6.02936 7.5 5.64782 7.5 5.25C7.5 4.85218 7.34196 4.47064 7.06066 4.18934C6.77936 3.90804 6.39782 3.75 6 3.75C5.60218 3.75 5.22064 3.90804 4.93934 4.18934C4.65804 4.47064 4.5 4.85218 4.5 5.25Z" stroke="#A6A6A6" stroke-width="1.5" stroke-linecap="round" stroke-linejoin="round"/>
</g>
</svg>
