<svg xmlns="http://www.w3.org/2000/svg" width="20" height="20" viewBox="0 0 20 20" fill="none">
  <path d="M10 17.5V13.3333M10 17.5C11.9891 17.5 13.8968 16.7098 15.3033 15.3033C16.7098 13.8968 17.5 11.9891 17.5 10M10 17.5C8.01088 17.5 6.10322 16.7098 4.6967 15.3033C3.29018 13.8968 2.5 11.9891 2.5 10M10 13.3333V6.66667M10 13.3333C14.1417 13.3333 17.5 11.8417 17.5 10M10 13.3333C5.85833 13.3333 2.5 11.8417 2.5 10M17.5 10C17.5 8.15833 14.1417 6.66667 10 6.66667M17.5 10C17.5 8.01088 16.7098 6.10322 15.3033 4.6967C13.8968 3.29018 11.9891 2.5 10 2.5M2.5 10C2.5 8.15833 5.85833 6.66667 10 6.66667M2.5 10C2.5 8.01088 3.29018 6.10322 4.6967 4.6967C6.10322 3.29018 8.01088 2.5 10 2.5M10 6.66667V2.5" stroke="#6B6B6B" stroke-width="1.5" stroke-linecap="round" stroke-linejoin="round"/>
</svg>