<svg width="12" height="13" viewBox="0 0 12 13" fill="none" xmlns="http://www.w3.org/2000/svg">
<path d="M2.5 5.37361C2.5 7.79961 4.622 9.80561 5.5615 10.5746C5.6965 10.6846 5.764 10.7406 5.8645 10.7686C5.9425 10.7906 6.0575 10.7906 6.1355 10.7686C6.236 10.7406 6.3035 10.6851 6.4385 10.5746C7.378 9.80561 9.5 7.79961 9.5 5.37361C9.49956 4.91813 9.40874 4.46726 9.23279 4.04713C9.05684 3.62701 8.79927 3.24597 8.475 2.92611C7.81555 2.27563 6.92628 1.9113 6 1.91211C5.07372 1.9113 4.18445 2.27563 3.525 2.92611C3.20071 3.24596 2.94312 3.62699 2.76717 4.04712C2.59122 4.46725 2.50041 4.91812 2.5 5.37361Z" stroke="white" stroke-width="1.5" stroke-linecap="round" stroke-linejoin="round"/>
<path d="M5 4.91211C5 5.17733 5.10536 5.43168 5.29289 5.61922C5.48043 5.80675 5.73478 5.91211 6 5.91211C6.26522 5.91211 6.51957 5.80675 6.70711 5.61922C6.89464 5.43168 7 5.17733 7 4.91211C7 4.64689 6.89464 4.39254 6.70711 4.205C6.51957 4.01747 6.26522 3.91211 6 3.91211C5.73478 3.91211 5.48043 4.01747 5.29289 4.205C5.10536 4.39254 5 4.64689 5 4.91211Z" stroke="white" stroke-width="1.5" stroke-linecap="round" stroke-linejoin="round"/>
</svg>
