<svg xmlns="http://www.w3.org/2000/svg" width="27" height="34" viewBox="0 0 27 34" fill="none">
  <path d="M1.25 13.7774C1.25 22.2684 8.677 29.2894 11.9653 31.9809C12.4378 32.3659 12.674 32.5619 13.0258 32.6599C13.2988 32.7369 13.7012 32.7369 13.9742 32.6599C14.326 32.5619 14.5622 32.3676 15.0347 31.9809C18.323 29.2894 25.75 22.2684 25.75 13.7774C25.7485 12.1832 25.4306 10.6051 24.8148 9.1347C24.199 7.66425 23.2975 6.33063 22.1625 5.21111C19.8544 2.93443 16.742 1.65927 13.5 1.66211C10.258 1.65927 7.14557 2.93443 4.8375 5.21111C3.70247 6.33057 2.80092 7.66418 2.1851 9.13464C1.56928 10.6051 1.25144 12.1832 1.25 13.7774Z" stroke="#8DB0F9" stroke-width="1.5" stroke-linecap="round" stroke-linejoin="round"/>
  <path d="M10 12.1621C10 13.0904 10.3687 13.9806 11.0251 14.637C11.6815 15.2934 12.5717 15.6621 13.5 15.6621C14.4283 15.6621 15.3185 15.2934 15.9749 14.637C16.6313 13.9806 17 13.0904 17 12.1621C17 11.2339 16.6313 10.3436 15.9749 9.68724C15.3185 9.03086 14.4283 8.66211 13.5 8.66211C12.5717 8.66211 11.6815 9.03086 11.0251 9.68724C10.3687 10.3436 10 11.2339 10 12.1621Z" stroke="#8DB0F9" stroke-width="1.5" stroke-linecap="round" stroke-linejoin="round"/>
</svg>