<svg width="19" height="19" viewBox="0 0 19 19" fill="none" xmlns="http://www.w3.org/2000/svg">
<g id="Icon/my">
<g id="Vector">
<path d="M13.4127 15.4111C12.9208 14.8601 12.3179 14.4194 11.6435 14.118C10.9692 13.8165 10.2387 13.6612 9.5 13.6621C7.94525 13.6621 6.54875 14.3371 5.58725 15.4111M9.5 16.6621C8.61358 16.6621 7.73583 16.4875 6.91689 16.1483C6.09794 15.8091 5.35382 15.3119 4.72703 14.6851C4.10023 14.0583 3.60303 13.3142 3.26381 12.4952C2.92459 11.6763 2.75 10.7985 2.75 9.91211C2.75 9.02569 2.92459 8.14794 3.26381 7.329C3.60303 6.51005 4.10023 5.76593 4.72703 5.13914C5.35382 4.51234 6.09794 4.01514 6.91689 3.67592C7.73583 3.3367 8.61358 3.16211 9.5 3.16211C11.2902 3.16211 13.0071 3.87327 14.273 5.13914C15.5388 6.40501 16.25 8.1219 16.25 9.91211C16.25 11.7023 15.5388 13.4192 14.273 14.6851C13.0071 15.9509 11.2902 16.6621 9.5 16.6621ZM9.5 11.4121C9.20453 11.4121 8.91194 11.3539 8.63896 11.2408C8.36598 11.1278 8.11794 10.962 7.90901 10.7531C7.70008 10.5442 7.53434 10.2961 7.42127 10.0231C7.3082 9.75016 7.25 9.45758 7.25 9.16211C7.25 8.86664 7.3082 8.57405 7.42127 8.30107C7.53434 8.02809 7.70008 7.78005 7.90901 7.57112C8.11794 7.36219 8.36598 7.19645 8.63896 7.08338C8.91194 6.97031 9.20453 6.91211 9.5 6.91211C10.0967 6.91211 10.669 7.14916 11.091 7.57112C11.5129 7.99308 11.75 8.56537 11.75 9.16211C11.75 9.75885 11.5129 10.3311 11.091 10.7531C10.669 11.1751 10.0967 11.4121 9.5 11.4121Z" fill="white"/>
<path d="M13.4127 15.4111C12.9208 14.8601 12.3179 14.4194 11.6435 14.118C10.9692 13.8165 10.2387 13.6612 9.5 13.6621C7.94525 13.6621 6.54875 14.3371 5.58725 15.4111M9.5 16.6621C8.61358 16.6621 7.73583 16.4875 6.91689 16.1483C6.09794 15.8091 5.35382 15.3119 4.72703 14.6851C4.10023 14.0583 3.60303 13.3142 3.26381 12.4952C2.92459 11.6763 2.75 10.7985 2.75 9.91211C2.75 9.02569 2.92459 8.14794 3.26381 7.329C3.60303 6.51005 4.10023 5.76593 4.72703 5.13914C5.35382 4.51234 6.09794 4.01514 6.91689 3.67592C7.73583 3.3367 8.61358 3.16211 9.5 3.16211C11.2902 3.16211 13.0071 3.87327 14.273 5.13914C15.5388 6.40501 16.25 8.1219 16.25 9.91211C16.25 11.7023 15.5388 13.4192 14.273 14.6851C13.0071 15.951 11.2902 16.6621 9.5 16.6621ZM9.5 11.4121C9.20453 11.4121 8.91194 11.3539 8.63896 11.2408C8.36598 11.1278 8.11794 10.962 7.90901 10.7531C7.70008 10.5442 7.53434 10.2961 7.42127 10.0231C7.3082 9.75016 7.25 9.45758 7.25 9.16211C7.25 8.86664 7.3082 8.57405 7.42127 8.30107C7.53434 8.02809 7.70008 7.78005 7.90901 7.57112C8.11794 7.36219 8.36598 7.19645 8.63896 7.08338C8.91194 6.97031 9.20453 6.91211 9.5 6.91211C10.0967 6.91211 10.669 7.14916 11.091 7.57112C11.5129 7.99308 11.75 8.56537 11.75 9.16211C11.75 9.75885 11.5129 10.3311 11.091 10.7531C10.669 11.1751 10.0967 11.4121 9.5 11.4121Z" stroke="#8DB0F9" stroke-width="1.5" stroke-linecap="round" stroke-linejoin="round"/>
</g>
</g>
</svg>
