<svg xmlns="http://www.w3.org/2000/svg" width="16" height="16" viewBox="0 0 16 16" fill="none">
  <path d="M11.9127 13.499C11.4208 12.948 10.8179 12.5073 10.1435 12.2059C9.46915 11.9044 8.73866 11.7491 8 11.75C6.44525 11.75 5.04875 12.425 4.08725 13.499M8 14.75C7.11358 14.75 6.23583 14.5754 5.41689 14.2362C4.59794 13.897 3.85382 13.3998 3.22703 12.773C2.60023 12.1462 2.10303 11.4021 1.76381 10.5831C1.42459 9.76417 1.25 8.88642 1.25 8C1.25 7.11358 1.42459 6.23583 1.76381 5.41689C2.10303 4.59794 2.60023 3.85382 3.22703 3.22703C3.85382 2.60023 4.59794 2.10303 5.41689 1.76381C6.23583 1.42459 7.11358 1.25 8 1.25C9.79021 1.25 11.5071 1.96116 12.773 3.22703C14.0388 4.4929 14.75 6.20979 14.75 8C14.75 9.79021 14.0388 11.5071 12.773 12.773C11.5071 14.0388 9.79021 14.75 8 14.75ZM8 9.5C7.70453 9.5 7.41194 9.4418 7.13896 9.32873C6.86598 9.21566 6.61794 9.04992 6.40901 8.84099C6.20008 8.63206 6.03434 8.38402 5.92127 8.11104C5.8082 7.83806 5.75 7.54547 5.75 7.25C5.75 6.95453 5.8082 6.66194 5.92127 6.38896C6.03434 6.11598 6.20008 5.86794 6.40901 5.65901C6.61794 5.45008 6.86598 5.28434 7.13896 5.17127C7.41194 5.0582 7.70453 5 8 5C8.59674 5 9.16903 5.23705 9.59099 5.65901C10.0129 6.08097 10.25 6.65326 10.25 7.25C10.25 7.84674 10.0129 8.41903 9.59099 8.84099C9.16903 9.26295 8.59674 9.5 8 9.5Z" stroke="black" stroke-width="1.5" stroke-linecap="round" stroke-linejoin="round"/>
</svg>