<svg xmlns="http://www.w3.org/2000/svg" width="14" height="16" viewBox="0 0 14 16" fill="none">
<path d="M3.625 4.0625H5.875ZM3.625 8H10.375ZM3.625 10.25H10.375ZM3.625 12.5H5.875ZM2.5 15.3125H11.5C11.7984 15.3125 12.0845 15.194 12.2955 14.983C12.5065 14.772 12.625 14.4859 12.625 14.1875V1.8125C12.625 1.51413 12.5065 1.22798 12.2955 1.017C12.0845 0.806026 11.7984 0.6875 11.5 0.6875H2.5C2.20163 0.6875 1.91548 0.806026 1.7045 1.017C1.49353 1.22798 1.375 1.51413 1.375 1.8125V14.1875C1.375 14.4859 1.49353 14.772 1.7045 14.983C1.91548 15.194 2.20163 15.3125 2.5 15.3125Z" fill="#8DB0F9"/>
<path d="M3.625 4.0625H5.875M3.625 8H10.375M3.625 10.25H10.375M3.625 12.5H5.875M2.5 15.3125H11.5C11.7984 15.3125 12.0845 15.194 12.2955 14.983C12.5065 14.772 12.625 14.4859 12.625 14.1875V1.8125C12.625 1.51413 12.5065 1.22798 12.2955 1.017C12.0845 0.806026 11.7984 0.6875 11.5 0.6875H2.5C2.20163 0.6875 1.91548 0.806026 1.7045 1.017C1.49353 1.22798 1.375 1.51413 1.375 1.8125V14.1875C1.375 14.4859 1.49353 14.772 1.7045 14.983C1.91548 15.194 2.20163 15.3125 2.5 15.3125Z" stroke="white" stroke-width="1.125" stroke-linecap="round" stroke-linejoin="round"/>
<path d="M10.375 4.34375C10.5303 4.34375 10.6562 4.21783 10.6562 4.0625C10.6562 3.90717 10.5303 3.78125 10.375 3.78125C10.2197 3.78125 10.0938 3.90717 10.0938 4.0625C10.0938 4.21783 10.2197 4.34375 10.375 4.34375Z" fill="white" stroke="white" stroke-width="0.5625"/>
</svg>