<svg xmlns="http://www.w3.org/2000/svg" width="18" height="18" viewBox="0 0 18 18" fill="none">
  <path d="M15.6892 3.47609L11.2245 15.5361C10.9425 16.2981 10.1302 16.6896 9.41097 16.4098C9.23285 16.3393 9.07127 16.2326 8.93639 16.0966C8.80151 15.9605 8.69624 15.798 8.62722 15.6193L7.21197 12.0418C6.94601 11.3551 6.41878 10.8017 5.74572 10.5028L2.33922 9.01709C1.63047 8.70734 1.30797 7.84859 1.61772 7.09859C1.69098 6.91749 1.79943 6.75273 1.93679 6.61382C2.07416 6.47491 2.2377 6.36463 2.41797 6.28934L13.905 1.60184C14.6302 1.30559 15.435 1.67759 15.7012 2.43359C15.819 2.76809 15.8137 3.13859 15.6892 3.47609Z" fill="black"/>
</svg>