<svg width="16" height="17" viewBox="0 0 16 17" fill="none" xmlns="http://www.w3.org/2000/svg">
<g id="Icon/question">
<path id="Vector" d="M8.625 11.6621C8.625 11.7857 8.58835 11.9066 8.51967 12.0093C8.451 12.1121 8.35338 12.1922 8.23918 12.2395C8.12498 12.2868 7.99931 12.2992 7.87807 12.2751C7.75683 12.251 7.64547 12.1915 7.55806 12.1041C7.47065 12.0166 7.41113 11.9053 7.38701 11.784C7.3629 11.6628 7.37527 11.5371 7.42258 11.4229C7.46988 11.3087 7.54999 11.2111 7.65277 11.1424C7.75555 11.0738 7.87639 11.0371 8 11.0371C8.16576 11.0371 8.32473 11.103 8.44195 11.2202C8.55916 11.3374 8.625 11.4963 8.625 11.6621ZM8 5.03711C6.6875 5.03711 5.625 5.99023 5.625 7.16211V7.41211C5.625 7.51157 5.66451 7.60695 5.73484 7.67727C5.80516 7.7476 5.90055 7.78711 6 7.78711C6.09946 7.78711 6.19484 7.7476 6.26517 7.67727C6.33549 7.60695 6.375 7.51157 6.375 7.41211V7.16211C6.375 6.40398 7.10375 5.78711 8 5.78711C8.89625 5.78711 9.625 6.40398 9.625 7.16211C9.625 7.92023 8.89625 8.53711 8 8.53711C7.90055 8.53711 7.80516 8.57662 7.73484 8.64694C7.66451 8.71727 7.625 8.81265 7.625 8.91211V9.41211C7.625 9.51157 7.66451 9.60695 7.73484 9.67727C7.80516 9.7476 7.90055 9.78711 8 9.78711C8.09946 9.78711 8.19484 9.7476 8.26517 9.67727C8.33549 9.60695 8.375 9.51157 8.375 9.41211V9.26086C9.50688 9.09961 10.375 8.21961 10.375 7.16211C10.375 5.99023 9.3125 5.03711 8 5.03711ZM14.375 8.41211C14.375 9.67297 14.0011 10.9055 13.3006 11.9539C12.6001 13.0022 11.6045 13.8193 10.4396 14.3018C9.27473 14.7844 7.99293 14.9106 6.7563 14.6646C5.51967 14.4186 4.38376 13.8115 3.4922 12.9199C2.60064 12.0284 1.99348 10.8924 1.7475 9.65581C1.50152 8.41918 1.62776 7.13738 2.11027 5.9725C2.59278 4.80762 3.40988 3.81198 4.45824 3.11149C5.50661 2.411 6.73915 2.03711 8 2.03711C9.69015 2.03909 11.3105 2.71138 12.5056 3.9065C13.7007 5.10161 14.373 6.72196 14.375 8.41211ZM13.625 8.41211C13.625 7.29959 13.2951 6.21205 12.677 5.28703C12.0589 4.362 11.1804 3.64103 10.1526 3.21529C9.12476 2.78954 7.99376 2.67815 6.90262 2.89519C5.81148 3.11223 4.8092 3.64796 4.02253 4.43463C3.23586 5.2213 2.70013 6.22358 2.48309 7.31473C2.26604 8.40587 2.37744 9.53687 2.80318 10.5647C3.22892 11.5925 3.94989 12.471 4.87492 13.0891C5.79995 13.7072 6.88748 14.0371 8 14.0371C9.49134 14.0355 10.9211 13.4423 11.9757 12.3878C13.0302 11.3332 13.6233 9.90344 13.625 8.41211Z" fill="black"/>
</g>
</svg>
