<svg width="18" height="18" viewBox="0 0 18 18" fill="none" xmlns="http://www.w3.org/2000/svg">
<path d="M11.2501 12.7502V13.5002C11.2501 14.097 11.013 14.6693 10.5911 15.0912C10.1691 15.5132 9.59683 15.7502 9.00009 15.7502C8.40336 15.7502 7.83106 15.5132 7.4091 15.0912C6.98715 14.6693 6.75009 14.097 6.75009 13.5002V12.7502M11.2501 12.7502H6.75009M11.2501 12.7502H13.9426C14.2298 12.7502 14.3738 12.7502 14.4901 12.7112C14.5994 12.6742 14.6988 12.6125 14.7803 12.5308C14.8619 12.4491 14.9235 12.3496 14.9603 12.2402C15.0001 12.1232 15.0001 11.9792 15.0001 11.6897C15.0001 11.563 15.0001 11.5 14.9896 11.4392C14.9711 11.3257 14.9267 11.2179 14.8598 11.1242C14.8238 11.074 14.7788 11.029 14.6896 10.9397L14.3971 10.6472C14.3504 10.6005 14.3134 10.5451 14.2882 10.4841C14.263 10.4231 14.25 10.3577 14.2501 10.2917V7.50024C14.2501 6.8108 14.1143 6.12811 13.8505 5.49115C13.5866 4.85419 13.1999 4.27544 12.7124 3.78793C12.2249 3.30042 11.6461 2.91371 11.0092 2.64987C10.3722 2.38604 9.68953 2.25024 9.00009 2.25024C8.31065 2.25024 7.62796 2.38604 6.99101 2.64987C6.35405 2.91371 5.77529 3.30042 5.28778 3.78793C4.80028 4.27544 4.41356 4.85419 4.14973 5.49115C3.88589 6.12811 3.75009 6.8108 3.75009 7.50024V10.2917C3.75014 10.3577 3.73718 10.4231 3.71196 10.4841C3.68674 10.5451 3.64974 10.6005 3.60309 10.6472L3.31059 10.9397C3.22059 11.0297 3.17634 11.074 3.14109 11.1235C3.07361 11.2172 3.0287 11.3253 3.00984 11.4392C3.00009 11.4992 3.00009 11.563 3.00009 11.6897C3.00009 11.9792 3.00009 12.1232 3.03909 12.2402C3.07609 12.3498 3.13793 12.4493 3.21976 12.531C3.3016 12.6127 3.40122 12.6744 3.51084 12.7112C3.62709 12.7502 3.77034 12.7502 4.05759 12.7502H6.75009M13.5143 1.51074C14.5485 2.29029 15.3632 3.32435 15.8791 4.51224M4.48659 1.51074C3.45215 2.2902 2.63719 3.32427 2.12109 4.51224" stroke="#171F31" stroke-width="1.5" stroke-linecap="round" stroke-linejoin="round"/>
</svg>
