<svg xmlns="http://www.w3.org/2000/svg" width="12" height="14" viewBox="0 0 12 14" fill="none">
  <path d="M1.5 3.4V10.5137C1.5 11.5345 1.5 12.0452 1.653 12.3572C1.79142 12.6396 2.01504 12.8712 2.29228 13.0195C2.56951 13.1678 2.88634 13.2253 3.198 13.1838C3.543 13.1388 3.9675 12.8553 4.8165 12.289L4.81875 12.2875C5.1555 12.0625 5.3235 11.9507 5.49975 11.8885C5.8232 11.7742 6.17606 11.7742 6.4995 11.8885C6.67575 11.9507 6.8445 12.0633 7.18275 12.289C8.0325 12.8553 8.45775 13.138 8.80275 13.1838C9.11429 13.2251 9.43095 13.1676 9.70804 13.0193C9.98512 12.871 10.2086 12.6394 10.347 12.3572C10.5 12.0452 10.5 11.5345 10.5 10.5137V3.39775C10.5 2.55925 10.5 2.13925 10.3365 1.819C10.1925 1.53669 9.96273 1.30722 9.68025 1.1635C9.36 1 8.94 1 8.1 1H3.9C3.06 1 2.64 1 2.319 1.1635C2.03674 1.30727 1.80727 1.53674 1.6635 1.819C1.5 2.14 1.5 2.56 1.5 3.4Z" stroke="black" stroke-width="1.5" stroke-linecap="round" stroke-linejoin="round"/>
</svg>