<svg xmlns="http://www.w3.org/2000/svg" width="25" height="25" viewBox="0 0 25 25" fill="none">
  <path d="M6.66675 7.7V17.185C6.66675 18.546 6.66675 19.227 6.87075 19.643C7.0553 20.0194 7.35347 20.3283 7.72312 20.5261C8.09277 20.7238 8.51521 20.8004 8.93075 20.745C9.39075 20.685 9.95675 20.307 11.0887 19.552L11.0917 19.55C11.5407 19.25 11.7647 19.101 11.9997 19.018C12.431 18.8656 12.9015 18.8656 13.3327 19.018C13.5677 19.101 13.7927 19.251 14.2437 19.552C15.3767 20.307 15.9437 20.684 16.4037 20.745C16.8191 20.8002 17.2414 20.7235 17.6108 20.5257C17.9802 20.328 18.2782 20.0192 18.4627 19.643C18.6667 19.227 18.6667 18.546 18.6667 17.185V7.697C18.6667 6.579 18.6667 6.019 18.4487 5.592C18.2567 5.21558 17.9504 4.90963 17.5737 4.718C17.1467 4.5 16.5867 4.5 15.4667 4.5H9.86675C8.74675 4.5 8.18675 4.5 7.75875 4.718C7.3824 4.90969 7.07644 5.21565 6.88475 5.592C6.66675 6.02 6.66675 6.58 6.66675 7.7Z" stroke="black" stroke-width="1.5" stroke-linecap="round" stroke-linejoin="round"/>
</svg>