<svg width="16" height="17" viewBox="0 0 16 17" fill="none" xmlns="http://www.w3.org/2000/svg">
<path d="M2.74278 3.24278C3.09831 2.88724 3.58053 2.6875 4.08333 2.6875H5.91667C5.97745 2.6875 6.03574 2.71164 6.07871 2.75462C6.12169 2.7976 6.14583 2.85589 6.14583 2.91667C6.14583 2.97745 6.12169 3.03574 6.07871 3.07871C6.03574 3.12169 5.97745 3.14583 5.91667 3.14583H4.08333C3.70208 3.14583 3.33645 3.29728 3.06687 3.56687C2.79728 3.83645 2.64583 4.20208 2.64583 4.58333V6.41667C2.64583 6.47745 2.62169 6.53574 2.57871 6.57871C2.53574 6.62169 2.47745 6.64583 2.41667 6.64583C2.35589 6.64583 2.2976 6.62169 2.25462 6.57871C2.21164 6.53574 2.1875 6.47745 2.1875 6.41667V4.58333C2.1875 4.08053 2.38724 3.59831 2.74278 3.24278ZM9.92129 2.75462C9.96426 2.71164 10.0226 2.6875 10.0833 2.6875H11.9167C12.4195 2.6875 12.9017 2.88724 13.2572 3.24278C13.6128 3.59831 13.8125 4.08053 13.8125 4.58333V6.41667C13.8125 6.47745 13.7884 6.53574 13.7454 6.57871C13.7024 6.62169 13.6441 6.64583 13.5833 6.64583C13.5226 6.64583 13.4643 6.62169 13.4213 6.57871C13.3783 6.53574 13.3542 6.47745 13.3542 6.41667V4.58333C13.3542 4.20208 13.2027 3.83645 12.9331 3.56687C12.6635 3.29728 12.2979 3.14583 11.9167 3.14583H10.0833C10.0226 3.14583 9.96426 3.12169 9.92129 3.07871C9.87831 3.03574 9.85417 2.97745 9.85417 2.91667C9.85417 2.85589 9.87831 2.7976 9.92129 2.75462ZM2.57871 10.4213C2.62169 10.4643 2.64583 10.5226 2.64583 10.5833V12.4167C2.64583 12.7979 2.79728 13.1635 3.06687 13.4331C3.33645 13.7027 3.70208 13.8542 4.08333 13.8542H5.91667C5.97745 13.8542 6.03574 13.8783 6.07871 13.9213C6.12169 13.9643 6.14583 14.0226 6.14583 14.0833C6.14583 14.1441 6.12169 14.2024 6.07871 14.2454C6.03574 14.2884 5.97745 14.3125 5.91667 14.3125H4.08333C3.58053 14.3125 3.09831 14.1128 2.74278 13.7572C2.38724 13.4017 2.1875 12.9195 2.1875 12.4167V10.5833C2.1875 10.5226 2.21164 10.4643 2.25462 10.4213C2.2976 10.3783 2.35589 10.3542 2.41667 10.3542C2.47745 10.3542 2.53574 10.3783 2.57871 10.4213ZM13.7454 10.4213C13.7884 10.4643 13.8125 10.5226 13.8125 10.5833V12.4167C13.8125 12.9195 13.6128 13.4017 13.2572 13.7572C12.9017 14.1128 12.4195 14.3125 11.9167 14.3125H10.0833C10.0226 14.3125 9.96426 14.2884 9.92129 14.2454C9.87831 14.2024 9.85417 14.1441 9.85417 14.0833C9.85417 14.0226 9.87831 13.9643 9.92129 13.9213C9.96426 13.8783 10.0226 13.8542 10.0833 13.8542H11.9167C12.2979 13.8542 12.6635 13.7027 12.9331 13.4331C13.2027 13.1635 13.3542 12.7979 13.3542 12.4167V10.5833C13.3542 10.5226 13.3783 10.4643 13.4213 10.4213C13.4643 10.3783 13.5226 10.3542 13.5833 10.3542C13.6441 10.3542 13.7024 10.3783 13.7454 10.4213ZM4.50462 8.33795C4.5476 8.29498 4.60589 8.27083 4.66667 8.27083H11.3333C11.3941 8.27083 11.4524 8.29498 11.4954 8.33795C11.5384 8.38093 11.5625 8.43922 11.5625 8.5C11.5625 8.56078 11.5384 8.61907 11.4954 8.66205C11.4524 8.70502 11.3941 8.72917 11.3333 8.72917H4.66667C4.60589 8.72917 4.5476 8.70502 4.50462 8.66205C4.46164 8.61907 4.4375 8.56078 4.4375 8.5C4.4375 8.43922 4.46164 8.38093 4.50462 8.33795Z" fill="#A6A6A6" stroke="#A6A6A6" stroke-width="0.375"/>
</svg>
