<svg xmlns="http://www.w3.org/2000/svg" width="24" height="25" viewBox="0 0 24 25" fill="none">
  <path d="M9 8.5L12 5.5M12 5.5L15 8.5M12 5.5V10.5V15.5M7 10.4999C6.068 10.4999 5.602 10.4999 5.235 10.6519C4.99218 10.7524 4.77155 10.8998 4.58572 11.0856C4.3999 11.2715 4.25251 11.4921 4.152 11.7349C4 12.1019 4 12.5679 4 13.4999V18.2999C4 19.4199 4 19.9799 4.218 20.4079C4.40974 20.7842 4.71569 21.0902 5.092 21.2819C5.519 21.4999 6.079 21.4999 7.197 21.4999H16.804C17.922 21.4999 18.481 21.4999 18.908 21.2819C19.284 21.0899 19.59 20.7839 19.782 20.4079C20 19.9799 20 19.4209 20 18.3029V13.4999C20 12.5679 20 12.1019 19.848 11.7349C19.7475 11.4921 19.6001 11.2715 19.4143 11.0856C19.2284 10.8998 19.0078 10.7524 18.765 10.6519C18.398 10.4999 17.932 10.4999 17 10.4999" stroke="#171F31" stroke-width="1.5" stroke-linecap="round" stroke-linejoin="round"/>
</svg>