<svg width="16" height="17" viewBox="0 0 16 17" fill="none" xmlns="http://www.w3.org/2000/svg">
<path d="M12.4445 14.0829H12.6945V13.8329V10.5273H13.0834V13.8329C13.0834 14.0023 13.0161 14.1648 12.8963 14.2847C12.7765 14.4045 12.614 14.4718 12.4445 14.4718H3.55564C3.38619 14.4718 3.22369 14.4045 3.10387 14.2847C2.98406 14.1648 2.91675 14.0023 2.91675 13.8329V10.5273H3.30564V13.8329V14.0829H3.55564H6.2223H6.4723V13.8329V10.5273H6.86119V13.8329V14.0829H7.11119H12.4445Z" fill="#A6A6A6" stroke="#A6A6A6" stroke-width="0.5"/>
<path d="M15.0178 6.39734L13.2045 2.77068C13.1309 2.62258 13.0174 2.49795 12.8769 2.4108C12.7364 2.32365 12.5743 2.27743 12.4089 2.27734H3.59115C3.42577 2.27743 3.26371 2.32365 3.12317 2.4108C2.98262 2.49795 2.86918 2.62258 2.79559 2.77068L0.982256 6.39734C0.920343 6.52156 0.888379 6.65855 0.888923 6.79734V8.16623C0.888517 8.37392 0.960851 8.5752 1.09337 8.73512C1.28922 8.95963 1.5311 9.13934 1.80258 9.26204C2.07406 9.38474 2.36878 9.44756 2.6667 9.44623C3.15282 9.44699 3.62411 9.2789 4.00003 8.97068C4.37595 9.27907 4.84714 9.44761 5.33337 9.44761C5.81959 9.44761 6.29079 9.27907 6.6667 8.97068C7.04262 9.27907 7.51381 9.44761 8.00003 9.44761C8.48626 9.44761 8.95745 9.27907 9.33337 8.97068C9.70928 9.27907 10.1805 9.44761 10.6667 9.44761C11.1529 9.44761 11.6241 9.27907 12 8.97068C12.4197 9.31522 12.9565 9.48365 13.4978 9.44055C14.039 9.39745 14.5424 9.14618 14.9023 8.73957C15.0364 8.58026 15.1103 8.37892 15.1111 8.17068V6.79734C15.1117 6.65855 15.0797 6.52156 15.0178 6.39734ZM13.3334 8.55734C13.1435 8.5569 12.9566 8.51109 12.788 8.42372C12.6195 8.33636 12.4743 8.20998 12.3645 8.05512L12 7.55734L11.64 8.05512C11.5282 8.20761 11.3819 8.33161 11.2132 8.41708C11.0445 8.50255 10.8581 8.54708 10.6689 8.54708C10.4798 8.54708 10.2933 8.50255 10.1246 8.41708C9.9559 8.33161 9.80969 8.20761 9.69781 8.05512L9.33337 7.55734L8.97337 8.05512C8.86149 8.20761 8.71528 8.33161 8.54656 8.41708C8.37785 8.50255 8.19138 8.54708 8.00226 8.54708C7.81313 8.54708 7.62666 8.50255 7.45795 8.41708C7.28924 8.33161 7.14302 8.20761 7.03115 8.05512L6.6667 7.55734L6.3067 8.05512C6.19482 8.20761 6.04861 8.33161 5.8799 8.41708C5.71118 8.50255 5.52472 8.54708 5.33559 8.54708C5.14646 8.54708 4.95999 8.50255 4.79128 8.41708C4.62257 8.33161 4.47636 8.20761 4.36448 8.05512L4.00003 7.55734L3.63559 8.05512C3.5258 8.20998 3.38058 8.33636 3.21205 8.42372C3.04351 8.51109 2.85653 8.5569 2.6667 8.55734C2.49921 8.55938 2.33322 8.52553 2.17989 8.45807C2.02657 8.3906 1.88947 8.2911 1.77781 8.16623V6.79734L3.59115 3.16623H12.4089L14.2223 6.7929V8.1529C14.1113 8.27952 13.9746 8.38107 13.8213 8.4508C13.6681 8.52053 13.5017 8.55685 13.3334 8.55734Z" fill="#A6A6A6"/>
</svg>
