<svg width="19" height="19" viewBox="0 0 19 19" fill="none" xmlns="http://www.w3.org/2000/svg">
<g id="Icon/Subway">
<path id="Vector" d="M8.375 12.1621C8.375 12.4605 8.25647 12.7466 8.0455 12.9576C7.83452 13.1686 7.54837 13.2871 7.25 13.2871C6.95163 13.2871 6.66548 13.1686 6.4545 12.9576C6.24353 12.7466 6.125 12.4605 6.125 12.1621C6.125 11.8637 6.24353 11.5776 6.4545 11.3666C6.66548 11.1556 6.95163 11.0371 7.25 11.0371C7.54837 11.0371 7.83452 11.1556 8.0455 11.3666C8.25647 11.5776 8.375 11.8637 8.375 12.1621ZM11.75 13.2871C12.0484 13.2871 12.3345 13.1686 12.5455 12.9576C12.7565 12.7466 12.875 12.4605 12.875 12.1621C12.875 11.8637 12.7565 11.5776 12.5455 11.3666C12.3345 11.1556 12.0484 11.0371 11.75 11.0371C11.4516 11.0371 11.1655 11.1556 10.9545 11.3666C10.7435 11.5776 10.625 11.8637 10.625 12.1621C10.625 12.4605 10.7435 12.7466 10.9545 12.9576C11.1655 13.1686 11.4516 13.2871 11.75 13.2871ZM7.25 5.97461C7.25 5.82543 7.30926 5.68235 7.41475 5.57686C7.52024 5.47137 7.66332 5.41211 7.8125 5.41211H11.1875C11.3367 5.41211 11.4798 5.47137 11.5852 5.57686C11.6907 5.68235 11.75 5.82543 11.75 5.97461C11.75 6.12379 11.6907 6.26687 11.5852 6.37236C11.4798 6.47785 11.3367 6.53711 11.1875 6.53711H7.8125C7.66332 6.53711 7.52024 6.47785 7.41475 6.37236C7.30926 6.26687 7.25 6.12379 7.25 5.97461ZM2.75 5.97461C2.75 5.22869 3.04632 4.51332 3.57376 3.98587C4.10121 3.45843 4.81658 3.16211 5.5625 3.16211H13.4375C14.1834 3.16211 14.8988 3.45843 15.4262 3.98587C15.9537 4.51332 16.25 5.22869 16.25 5.97461V12.7246C16.25 13.4705 15.9537 14.1859 15.4262 14.7133C14.8988 15.2408 14.1834 15.5371 13.4375 15.5371H12.7434L14.8415 16.7364C14.9075 16.772 14.9656 16.8205 15.0126 16.879C15.0596 16.9374 15.0944 17.0047 15.1149 17.0768C15.1355 17.1489 15.1415 17.2244 15.1325 17.2988C15.1235 17.3733 15.0996 17.4452 15.0624 17.5103C15.0252 17.5754 14.9754 17.6324 14.9158 17.678C14.8563 17.7235 14.7882 17.7567 14.7156 17.7756C14.6431 17.7945 14.5674 17.7987 14.4932 17.7879C14.419 17.7771 14.3477 17.7516 14.2835 17.7129L10.4754 15.5371H8.52462L4.7165 17.7129C4.58728 17.7827 4.43588 17.7992 4.29464 17.7589C4.15341 17.7186 4.03354 17.6246 3.96067 17.4971C3.8878 17.3696 3.8677 17.2186 3.90466 17.0764C3.94163 16.9343 4.03273 16.8122 4.1585 16.7364L6.25663 15.5371H5.5625C4.81658 15.5371 4.10121 15.2408 3.57376 14.7133C3.04632 14.1859 2.75 13.4705 2.75 12.7246V5.97461ZM3.875 9.91211V12.7246C3.875 13.1722 4.05279 13.6014 4.36926 13.9179C4.68572 14.2343 5.11495 14.4121 5.5625 14.4121H13.4375C13.8851 14.4121 14.3143 14.2343 14.6307 13.9179C14.9472 13.6014 15.125 13.1722 15.125 12.7246V9.91211H3.875ZM15.125 8.78711V5.97461C15.125 5.52706 14.9472 5.09783 14.6307 4.78137C14.3143 4.4649 13.8851 4.28711 13.4375 4.28711H5.5625C5.11495 4.28711 4.68572 4.4649 4.36926 4.78137C4.05279 5.09783 3.875 5.52706 3.875 5.97461V8.78711H15.125Z" fill="#8DB0F9"/>
</g>
</svg>
