<svg width="18" height="19" viewBox="0 0 18 19" fill="none" xmlns="http://www.w3.org/2000/svg">
<path d="M8.81046 10.1534L8.81044 10.1534L11.9201 12.0193C11.9205 12.0195 11.9208 12.0197 11.9212 12.0199C12.0089 12.0708 12.1036 12.0373 12.1418 11.9724L12.1462 11.9648L12.1463 11.9649C12.1574 11.9469 12.1649 11.9269 12.1681 11.906L12.5387 11.9635L12.1681 11.906C12.1713 11.8851 12.1703 11.8638 12.1652 11.8433L8.81046 10.1534ZM8.81046 10.1534L8.8058 10.1507C8.69361 10.0856 8.625 9.96443 8.625 9.83V6.29C8.625 6.19711 8.69711 6.125 8.79 6.125H8.835C8.92789 6.125 9 6.19711 9 6.29V9.695V9.90836L9.18341 10.0174L12.0859 11.7424L12.0859 11.7424L12.0909 11.7452C12.1092 11.7558 12.1252 11.7699 12.138 11.7867L8.81046 10.1534ZM1.875 9.5C1.875 5.56662 5.0601 2.375 8.9925 2.375C12.9331 2.375 16.125 5.56735 16.125 9.5C16.125 13.4326 12.9331 16.625 8.9925 16.625C5.0601 16.625 1.875 13.4334 1.875 9.5ZM2.625 9.5C2.625 13.0221 5.47789 15.875 9 15.875C12.5221 15.875 15.375 13.0221 15.375 9.5C15.375 5.97789 12.5221 3.125 9 3.125C5.47789 3.125 2.625 5.97789 2.625 9.5Z" fill="white" stroke="#A6A6A6" stroke-width="0.75"/>
</svg>
