<svg xmlns="http://www.w3.org/2000/svg" width="12" height="12" viewBox="0 0 12 12" fill="none">
  <path d="M8.00001 4.2L3.56251 8.65C3.46251 8.75 3.34368 8.8 3.20601 8.8C3.06835 8.8 2.94968 8.75 2.85001 8.65C2.75001 8.55 2.70001 8.43117 2.70001 8.2935C2.70001 8.15584 2.75001 8.03717 2.85001 7.9375L7.30001 3.5H3.50001C3.35835 3.5 3.23951 3.452 3.14351 3.356C3.04751 3.26 2.99968 3.14134 3.00001 3C3.00001 2.85834 3.04801 2.7395 3.14401 2.6435C3.24001 2.5475 3.35868 2.49967 3.50001 2.5H8.50001C8.64168 2.5 8.76051 2.548 8.85651 2.644C8.95251 2.74 9.00035 2.85867 9.00001 3V8C9.00001 8.14167 8.95201 8.2605 8.85601 8.3565C8.76001 8.4525 8.64135 8.50034 8.50001 8.5C8.35835 8.5 8.23951 8.452 8.14351 8.356C8.04751 8.26 7.99968 8.14134 8.00001 8V4.2Z" fill="black"/>
</svg>