<svg width="18" height="19" viewBox="0 0 18 19" fill="none" xmlns="http://www.w3.org/2000/svg">
<path d="M3.75 7.94225C3.75 11.5813 6.933 14.5903 8.34225 15.7438C8.54475 15.9088 8.646 15.9928 8.79675 16.0348C8.91375 16.0678 9.08625 16.0678 9.20325 16.0348C9.354 15.9928 9.45525 15.9095 9.65775 15.7438C11.067 14.5903 14.25 11.5813 14.25 7.94225C14.2493 7.25903 14.1131 6.58273 13.8492 5.95254C13.5853 5.32235 13.1989 4.7508 12.7125 4.271C11.7233 3.29528 10.3894 2.74878 9 2.75C7.61058 2.74878 6.27667 3.29528 5.2875 4.271C4.80106 4.75077 4.41468 5.32232 4.15076 5.95251C3.88683 6.58271 3.75062 7.25902 3.75 7.94225Z" stroke="#A6A6A6" stroke-width="1.5" stroke-linecap="round" stroke-linejoin="round"/>
<path d="M7.5 7.25C7.5 7.64782 7.65804 8.02936 7.93934 8.31066C8.22064 8.59196 8.60218 8.75 9 8.75C9.39782 8.75 9.77936 8.59196 10.0607 8.31066C10.342 8.02936 10.5 7.64782 10.5 7.25C10.5 6.85218 10.342 6.47064 10.0607 6.18934C9.77936 5.90804 9.39782 5.75 9 5.75C8.60218 5.75 8.22064 5.90804 7.93934 6.18934C7.65804 6.47064 7.5 6.85218 7.5 7.25Z" stroke="#A6A6A6" stroke-width="1.5" stroke-linecap="round" stroke-linejoin="round"/>
</svg>
