<svg width="18" height="19" viewBox="0 0 18 19" fill="none" xmlns="http://www.w3.org/2000/svg">
<path d="M11.125 8.00015L8.29171 11.0002L6.87504 9.50015M9.88262 3.0944L10.7475 3.8744C10.9657 4.0709 11.2362 4.1894 11.521 4.21415L12.6543 4.31015C12.9765 4.33739 13.2789 4.48519 13.5075 4.72706C13.736 4.96894 13.8758 5.28909 13.9017 5.63015L13.9917 6.83015C14.015 7.1324 14.1277 7.41965 14.3132 7.6499L15.0499 8.5649C15.2599 8.82552 15.3752 9.15685 15.3752 9.4994C15.3752 9.84195 15.2599 10.1733 15.0499 10.4339L14.3132 11.3497C14.1277 11.5807 14.015 11.8672 13.9924 12.1694L13.9017 13.3694C13.876 13.7105 13.7364 14.0307 13.508 14.2727C13.2795 14.5147 12.9772 14.6627 12.655 14.6902L11.5217 14.7862C11.2364 14.8101 10.9654 14.9287 10.7475 15.1252L9.88262 15.9052C9.63642 16.1273 9.32352 16.2493 9.00004 16.2493C8.67656 16.2493 8.36366 16.1273 8.11746 15.9052L7.25329 15.1252C7.03515 14.9286 6.76395 14.8099 6.47837 14.7862L5.34504 14.6902C5.02281 14.6627 4.72036 14.5146 4.4919 14.2724C4.26345 14.0303 4.12393 13.7099 4.09837 13.3687L4.00771 12.1694C3.98477 11.8675 3.87248 11.5809 3.68683 11.3504L2.95016 10.4339C2.74059 10.1734 2.62549 9.84237 2.62549 9.50015C2.62549 9.15794 2.74059 8.82692 2.95016 8.5664L3.68683 7.6499C3.87312 7.4189 3.98433 7.1324 4.007 6.83015L4.09766 5.6309C4.12373 5.28958 4.26371 4.96923 4.49253 4.72722C4.72135 4.48522 5.02406 4.33737 5.34646 4.31015L6.47837 4.2149C6.76378 4.19077 7.03472 4.07187 7.25258 3.87515L8.11746 3.09515C8.36366 2.873 8.67656 2.75098 9.00004 2.75098C9.32352 2.75098 9.63642 2.87225 9.88262 3.0944Z" stroke="white" stroke-width="1.5" stroke-linecap="round" stroke-linejoin="round"/>
</svg>
