<svg width="18" height="18" viewBox="0 0 18 18" fill="none" xmlns="http://www.w3.org/2000/svg">
<g id="Icon/photo">
<path id="Vector" d="M4.5 12.75H13.5L10.6875 9L8.4375 12L6.75 9.75L4.5 12.75ZM3 15.75C2.5875 15.75 2.2345 15.6033 1.941 15.3097C1.647 15.0157 1.5 14.6625 1.5 14.25V5.25C1.5 4.8375 1.647 4.4845 1.941 4.191C2.2345 3.897 2.5875 3.75 3 3.75H5.3625L6.75 2.25H11.25L12.6375 3.75H15C15.4125 3.75 15.7657 3.897 16.0597 4.191C16.3533 4.4845 16.5 4.8375 16.5 5.25V14.25C16.5 14.6625 16.3533 15.0157 16.0597 15.3097C15.7657 15.6033 15.4125 15.75 15 15.75H3ZM15 14.25V5.25H11.9625L10.5938 3.75H7.40625L6.0375 5.25H3V14.25H15Z" fill="black"/>
</g>
</svg>
