<svg width="19" height="19" viewBox="0 0 19 19" fill="none" xmlns="http://www.w3.org/2000/svg">
<path d="M7 6.5L9.25 4.25M9.25 4.25L11.5 6.5M9.25 4.25V8V11.75M5.5 7.99994C4.801 7.99994 4.4515 7.99994 4.17625 8.11394C3.99414 8.18933 3.82866 8.29986 3.68929 8.43924C3.54992 8.57861 3.43938 8.74408 3.364 8.92619C3.25 9.20144 3.25 9.55094 3.25 10.2499V13.8499C3.25 14.6899 3.25 15.1099 3.4135 15.4309C3.55731 15.7132 3.78677 15.9426 4.069 16.0864C4.38925 16.2499 4.80925 16.2499 5.64775 16.2499H12.853C13.6915 16.2499 14.1108 16.2499 14.431 16.0864C14.713 15.9424 14.9425 15.7129 15.0865 15.4309C15.25 15.1099 15.25 14.6907 15.25 13.8522V10.2499C15.25 9.55094 15.25 9.20144 15.136 8.92619C15.0606 8.74408 14.9501 8.57861 14.8107 8.43924C14.6713 8.29986 14.5059 8.18933 14.3237 8.11394C14.0485 7.99994 13.699 7.99994 13 7.99994" stroke="white" stroke-width="1.5" stroke-linecap="round" stroke-linejoin="round"/>
</svg>
