<svg width="18" height="18" viewBox="0 0 18 18" fill="none" xmlns="http://www.w3.org/2000/svg">
<g id="Icon/up">
<path id="Vector" d="M5.0251 11.0251C4.8876 10.8876 4.81885 10.7126 4.81885 10.5001C4.81885 10.2876 4.8876 10.1126 5.0251 9.9751L8.4751 6.5251C8.5501 6.4501 8.63135 6.39685 8.71885 6.36535C8.80635 6.33435 8.9001 6.31885 9.0001 6.31885C9.1001 6.31885 9.1971 6.3376 9.2911 6.3751C9.3846 6.4126 9.4626 6.4626 9.5251 6.5251L12.9751 9.9751C13.1126 10.1126 13.1813 10.2876 13.1813 10.5001C13.1813 10.7126 13.1126 10.8876 12.9751 11.0251C12.8376 11.1626 12.6626 11.2313 12.4501 11.2313C12.2376 11.2313 12.0626 11.1626 11.9251 11.0251L9.0001 8.1001L6.0751 11.0251C5.9376 11.1626 5.7626 11.2313 5.5501 11.2313C5.3376 11.2313 5.1626 11.1626 5.0251 11.0251Z" fill="#6B6B6B"/>
</g>
</svg>
