<svg width="12" height="13" viewBox="0 0 12 13" fill="none" xmlns="http://www.w3.org/2000/svg">
<g id="Group">
<path id="Vector" d="M6.00008 2.5C8.14508 2.5 9.93158 3.7145 11.3326 6.077L11.4426 6.2665L11.4651 6.3165L11.4801 6.358L11.4871 6.3855L11.4941 6.4265L11.4996 6.4765V6.5315L11.4926 6.587C11.4893 6.60557 11.485 6.62393 11.4796 6.642L11.4601 6.696L11.4421 6.7335L11.4341 6.7485C10.0521 9.1665 8.28408 10.4385 6.15658 10.498L6.00008 10.5C3.80208 10.5 1.98158 9.2255 0.566083 6.748C0.522938 6.67247 0.500244 6.58699 0.500244 6.5C0.500244 6.41301 0.522938 6.32753 0.566083 6.252C1.98158 3.7745 3.80208 2.5 6.00008 2.5ZM6.00008 5C5.60226 5 5.22073 5.15804 4.93942 5.43934C4.65812 5.72064 4.50008 6.10218 4.50008 6.5C4.50008 6.89782 4.65812 7.27936 4.93942 7.56066C5.22073 7.84196 5.60226 8 6.00008 8C6.39791 8 6.77944 7.84196 7.06074 7.56066C7.34205 7.27936 7.50008 6.89782 7.50008 6.5C7.50008 6.10218 7.34205 5.72064 7.06074 5.43934C6.77944 5.15804 6.39791 5 6.00008 5Z" fill="black"/>
</g>
</svg>
